<svg width="250" height="205" viewBox="0 0 177 168" fill="none" xmlns="http://www.w3.org/2000/svg">
<path d="M50.9791 119.611C30.5494 100.218 30.5494 68.7781 50.9791 49.3855L25.01 24.7363C22.7268 26.9034 20.6016 29.1648 18.6191 31.4978L27.4344 44.5443C25.0435 47.7996 22.9659 51.197 21.2252 54.7111L4.93683 53.9891C2.62011 59.6797 0.970311 65.556 0 71.5159L14.5029 78.6291C14.159 82.5347 14.159 86.4602 14.5029 90.3671L0 97.4803C0.970311 103.44 2.62011 109.316 4.93683 115.007L21.2252 114.285C22.9659 117.799 25.0449 121.197 27.4344 124.452L18.6191 137.498C20.603 139.831 22.7268 142.091 25.01 144.26C27.2932 146.428 29.6756 148.444 32.1335 150.327L45.8787 141.96C49.3083 144.229 52.8875 146.201 56.5898 147.854L55.8293 163.314C61.8245 165.513 68.0155 167.079 74.2945 168L81.7886 154.234C85.9033 154.561 90.0404 154.561 94.1551 154.234L101.649 168C107.928 167.079 114.119 165.513 120.114 163.314L119.354 147.854C123.056 146.201 126.635 144.228 130.065 141.96L143.81 150.327C146.268 148.444 148.649 146.428 150.934 144.26L124.965 119.611C104.535 139.002 71.4101 139.002 50.9791 119.611Z" fill="url(#paint0_linear_2_96)"/>
<path d="M70.1504 101.414C60.3075 92.0711 60.3075 76.9251 70.1504 67.5825L57.6398 55.7077C56.5395 56.7521 55.5161 57.8417 54.5611 58.9644L58.8087 65.2494C57.6566 66.8181 56.6555 68.4543 55.8181 70.1477L47.9703 69.8C46.8546 72.5418 46.059 75.3724 45.592 78.2442L52.5786 81.6707C52.4122 83.5525 52.4122 85.4436 52.5786 87.3254L45.592 90.752C46.0604 93.6238 46.8546 96.4544 47.9703 99.1962L55.8181 98.8485C56.6569 100.542 57.658 102.178 58.8087 103.747L54.5611 110.032C55.5175 111.156 56.5409 112.244 57.6398 113.288C58.7402 114.333 59.8867 115.304 61.0709 116.211L67.6925 112.18C69.3451 113.274 71.069 114.224 72.853 115.019L72.4867 122.468C75.3753 123.527 78.3575 124.282 81.3831 124.725L84.9931 118.094C86.9757 118.252 88.968 118.252 90.9506 118.094L94.5606 124.725C97.5862 124.281 100.568 123.527 103.457 122.468L103.091 115.019C104.875 114.223 106.599 113.273 108.251 112.18L114.873 116.211C116.057 115.303 117.204 114.333 118.304 113.288L105.793 101.414C95.9518 110.755 79.9934 110.755 70.1504 101.414Z" fill="url(#paint1_linear_2_96)"/>
<path d="M64.2238 16.531C64.2238 16.531 63.8672 17.4334 63.329 18.7843C89.2114 10.0588 119.214 15.5197 139.929 35.1817C166.106 60.0287 168.39 98.9533 146.805 126.271L157.895 136.798C185.503 103.626 183.196 55.36 150.932 24.7363C125.504 0.600668 88.5305 -5.86222 56.8933 5.30119L59.7371 6.80875L64.2238 16.531Z" fill="url(#paint2_linear_2_96)"/>
<path d="M58.2368 19.98L45.5724 26.2001C50.0381 29.4687 56.2473 30.2277 61.5868 27.6054C68.9326 23.9984 71.8072 15.4215 68.0056 8.4477C64.2055 1.47521 55.1679 -1.25327 47.822 2.35506C42.4839 4.97738 39.5492 10.226 39.7799 15.5741L52.4443 9.35409L59.0939 12.8231L58.2368 19.98Z" fill="url(#paint3_linear_2_96)"/>
<path d="M70.5153 53.8591C84.4283 46.7114 102.172 48.7007 113.93 59.8615C121.38 66.9322 124.923 76.2841 124.629 85.5485L130.34 82.4484L138.039 83.3269L140.258 85.4357C140.515 72.4183 135.426 59.324 124.96 49.3921C107.071 32.4121 79.4494 30.3034 59.1414 43.0633L70.5153 53.8591Z" fill="url(#paint4_linear_2_96)"/>
<path d="M142.579 82.1273C136.923 76.4168 127.46 76.1381 121.443 81.5075C115.427 86.8755 115.133 95.8572 120.79 101.569C126.445 107.279 135.908 107.558 141.924 102.189C147.942 96.8207 148.234 87.839 142.579 82.1273ZM130.854 99.301L124.47 94.8925L125.3 87.4396L132.515 84.3966L138.899 88.8051L138.068 96.258L130.854 99.301Z" fill="url(#paint5_linear_2_96)"/>
<defs>
<linearGradient id="paint0_linear_2_96" x1="8.32566" y1="33.0846" x2="114.963" y2="199.975" gradientUnits="userSpaceOnUse">
<stop stop-color="#4F5668"/>
<stop offset="0.4721" stop-color="#373D4C"/>
<stop offset="1" stop-color="#181D28"/>
</linearGradient>
<linearGradient id="paint1_linear_2_96" x1="34.7879" y1="57.4503" x2="122.976" y2="160.29" gradientUnits="userSpaceOnUse">
<stop stop-color="#9333EA"/>
<stop offset="1" stop-color="#9333EA"/>
</linearGradient>
<linearGradient id="paint2_linear_2_96" x1="89.2273" y1="-16.9672" x2="171.043" y2="154.966" gradientUnits="userSpaceOnUse">
<stop stop-color="#9333EA"/>
<stop offset="0.345" stop-color="#CFADF1"/>
<stop offset="1" stop-color="#9333EA"/>
</linearGradient>
<linearGradient id="paint3_linear_2_96" x1="48.7592" y1="2.28977" x2="130.575" y2="174.222" gradientUnits="userSpaceOnUse">
<stop stop-color="#8D43D1"/>
<stop offset="1" stop-color="#E37727"/>
</linearGradient>
<linearGradient id="paint4_linear_2_96" x1="80.2988" y1="30.0125" x2="169.14" y2="161.12" gradientUnits="userSpaceOnUse">
<stop stop-color="#4F5668"/>
<stop offset="0.4721" stop-color="#373D4C"/>
<stop offset="1" stop-color="#181D28"/>
</linearGradient>
<linearGradient id="paint5_linear_2_96" x1="83.5297" y1="27.8235" x2="172.37" y2="158.931" gradientUnits="userSpaceOnUse">
<stop stop-color="#4F5668"/>
<stop offset="0.4721" stop-color="#373D4C"/>
<stop offset="1" stop-color="#181D28"/>
</linearGradient>
</defs>
</svg>
